# xmcd
#
# Track frame offsets:
#	150
#	13490
#	32600
#	47000
#	63492
#	73717
#	86392
#	103090
#	116497
#	131795
#	151860
#
# Disc length: 2187 seconds
#
# Revision: 1
# Processed by: cddbd v1.5PL3 Copyright (c) Steve Scherf et al.
# Submitted via: CDex 1.50Beta5
#
DISCID=9208890b
DTITLE=本谷美加子 - ルナシア
DYEAR=1900
DGENRE=
TTITLE0=綱渡り師の愛
TTITLE1=Lunacia
TTITLE2=笛吹き
TTITLE3=Solitude
TTITLE4=怪力男のテーマ
TTITLE5=Galoche
TTITLE6=見世物小屋のいかさま師
TTITLE7=ガンバレ
TTITLE8=ためいき
TTITLE9=喪失
TTITLE10=La Cancion de Marcelino
EXTD=オカリナ
EXTT0=
EXTT1=
EXTT2=
EXTT3=
EXTT4=
EXTT5=
EXTT6=
EXTT7=
EXTT8=
EXTT9=
EXTT10=
PLAYORDER=
